<?xml version="1.0" encoding="UTF-8"?>
<!DOCTYPE svg PUBLIC "-//W3C//DTD SVG 1.1//EN" "http://www.w3.org/Graphics/SVG/1.1/DTD/svg11.dtd">
<!-- Creator: CorelDRAW X7 -->
<svg xmlns="http://www.w3.org/2000/svg" xml:space="preserve" width="1.70666in" height="1.70666in" version="1.1" style="shape-rendering:geometricPrecision; text-rendering:geometricPrecision; image-rendering:optimizeQuality; fill-rule:evenodd; clip-rule:evenodd"
viewBox="0 0 1707 1707"
 xmlns:xlink="http://www.w3.org/1999/xlink">
 <defs>
  <style type="text/css">
   <![CDATA[
    .fil0 {fill:#363435}
   ]]>
  </style>
 </defs>
 <g id="Layer_x0020_1">
  <metadata id="CorelCorpID_0Corel-Layer"/>
  <g id="_1085256768">
   <path class="fil0" d="M1160 833l-352 0c1,-69 46,-139 62,-207l321 0c-5,63 -30,141 -31,207zm-290 -217l-290 0 -108 215c334,10 331,-36 288,89 -13,36 -32,76 -35,110l-363 0c-46,87 -89,172 -134,259l414 0c4,-47 28,-89 43,-133 49,-150 -28,-116 444,-116 -2,56 -29,196 -42,249l435 0 -10 -259 -373 0c0,-42 7,-66 13,-111 15,-112 -32,-86 350,-86 0,-276 66,-217 -301,-217 2,-63 21,-112 21,-187l-290 0c-15,64 -46,118 -62,187z"/>
   <path class="fil0" d="M1491 1672l-1232 0c-84,0 -176,-101 -176,-207l0 -1191c0,-139 98,-228 238,-228l1108 0c146,0 238,92 238,238l0 1160c0,66 -18,109 -47,150 -22,32 -82,78 -129,78zm-1439 -1450l0 1264c0,60 42,133 75,163 40,36 100,65 173,65l1150 0c141,0 248,-117 248,-228l0 -1243c0,-114 -114,-228 -228,-228l-1191 0c-124,0 -227,125 -227,207z"/>
  </g>
 </g>
</svg>
