<?xml version="1.0" encoding="UTF-8"?>
<!DOCTYPE svg PUBLIC "-//W3C//DTD SVG 1.1//EN" "http://www.w3.org/Graphics/SVG/1.1/DTD/svg11.dtd">
<!-- Creator: CorelDRAW X7 -->
<svg xmlns="http://www.w3.org/2000/svg" xml:space="preserve" width="1.70666in" height="1.70666in" version="1.1" style="shape-rendering:geometricPrecision; text-rendering:geometricPrecision; image-rendering:optimizeQuality; fill-rule:evenodd; clip-rule:evenodd"
viewBox="0 0 1707 1707"
 xmlns:xlink="http://www.w3.org/1999/xlink">
 <defs>
  <style type="text/css">
   <![CDATA[
    .fil0 {fill:#353435}
   ]]>
  </style>
 </defs>
 <g id="Layer_x0020_1">
  <metadata id="CorelCorpID_0Corel-Layer"/>
  <g id="_1085263584">
   <path class="fil0" d="M425 1222l352 0 0 41 -352 0 0 -41zm0 -93l352 0 0 31 -352 0 0 -31zm0 -104l352 0 0 52 -352 0 0 -52zm0 -83l352 0 0 32 -352 0 0 -32zm0 -103l352 0 0 41 -352 0 0 -41zm0 -93l352 0 0 41 -352 0 0 -41zm0 -94l352 0 0 42 -352 0 0 -42zm0 -93l352 0 0 42 -352 0 0 -42zm0 -103l352 0 0 51 -352 0 0 -51zm72 -52l-10 -52 -73 0 0 52 -93 0 0 52 62 0 0 51 -62 0 0 52 62 0 0 42 -62 0 0 51 62 0 0 42 -62 0 0 52 62 0 0 41 -62 0 0 52 62 0 0 41 -62 0 0 62 62 0 0 32 -62 0 0 51 62 0 0 52 -62 0 0 52 62 0 0 31 -62 0 0 62 62 0 0 41 -62 0 0 145 560 0 0 -145 -63 0 0 -41c42,0 63,6 63,-31 0,-37 -27,-31 -63,-31l0 -31 63 0 0 -52c-63,0 -61,3 -63,-52l63 0 0 -51 -63 0 0 -32c102,0 65,-62 31,-62l-31 0 0 -41 63 0 0 -52 -63 0 0 -41 63 0 0 -52 -63 0 0 -42 63 0 0 -51 -63 0 0 -42 63 0 0 -52 -63 0 0 -51 63 0 0 -52 -83 0c-2,-57 0,-52 -73,-52l0 52 -31 0 0 -104 -197 0 0 104z"/>
   <path class="fil0" d="M1036 1253l290 0 0 42 -290 0 0 -42zm0 -72l290 0 0 31 -290 0 0 -31zm0 -83l290 0 0 41 -290 0 0 -41zm0 -73l290 0 0 31 -290 0 0 -31zm0 -72l290 0 0 31 -290 0 0 -31zm0 -83l290 0 0 31 -290 0 0 -31zm0 -73l290 0 0 32 -290 0 0 -32zm0 -72l290 0 0 21 -290 0 0 -21zm0 -93l290 0 0 41 -290 0 0 -41zm62 -42c-1,-2 -4,-7 -4,-6l-6 -35 -52 0 0 41 -83 0 0 42c46,1 48,-4 52,41l-52 0c1,51 1,51 52,52l0 21c-51,1 -51,0 -52,51l52 0 0 32 -52 0 0 41 52 0 0 31 -52 0 0 52 52 0 0 31 -52 0 0 41 52 0 0 31 -52 0 0 42 52 0 0 41 -52 0 0 42 52 0 0 31 -52 0 0 41 52 0c-4,45 -6,41 -52,42l0 113 456 0 0 -113c-46,-1 -48,3 -52,-42l52 0 0 -41c-49,-1 -41,10 -52,-31l52 0 0 -42c-46,-1 -48,4 -52,-41l52 0 0 -42 -52 0 0 -31 52 0 0 -41 -52 0 0 -31c51,-1 51,-1 52,-52l-52 0 0 -31 52 0 0 -41 -52 0 0 -32 52 0c-1,-51 -1,-50 -52,-51l0 -21c51,-1 51,-1 52,-52l-52 0c4,-45 6,-40 52,-41l0 -42 -73 0 0 -41 -62 0 -10 -42 -166 0 0 83z"/>
   <path class="fil0" d="M1460 1667l-1191 0c-107,0 -196,-102 -196,-207l0 -1211c0,-108 100,-208 207,-208l1170 0c113,0 207,105 207,218l0 1181c0,117 -86,227 -197,227zm-1418 -1439l0 1253c0,51 20,92 48,128 2,2 14,16 14,16 48,50 108,84 197,84l1128 0c141,0 259,-114 259,-228l0 -1243c0,-155 -140,-238 -310,-238l-1026 0c-166,0 -310,79 -310,228z"/>
  </g>
 </g>
</svg>
