<?xml version="1.0" encoding="UTF-8"?>
<!DOCTYPE svg PUBLIC "-//W3C//DTD SVG 1.1//EN" "http://www.w3.org/Graphics/SVG/1.1/DTD/svg11.dtd">
<!-- Creator: CorelDRAW X7 -->
<svg xmlns="http://www.w3.org/2000/svg" xml:space="preserve" width="1.70666in" height="1.70666in" version="1.1" style="shape-rendering:geometricPrecision; text-rendering:geometricPrecision; image-rendering:optimizeQuality; fill-rule:evenodd; clip-rule:evenodd"
viewBox="0 0 1707 1707"
 xmlns:xlink="http://www.w3.org/1999/xlink">
 <defs>
  <style type="text/css">
   <![CDATA[
    .fil0 {fill:#363334}
   ]]>
  </style>
 </defs>
 <g id="Layer_x0020_1">
  <metadata id="CorelCorpID_0Corel-Layer"/>
  <g id="_1085205568">
   <path class="fil0" d="M97 1464l0 -1241c0,-41 35,-93 58,-116 32,-31 68,-59 127,-59l1190 0c103,0 184,111 184,175l0 1241c0,113 -108,195 -225,195l-1108 0c-117,0 -226,-82 -226,-195zm-41 -1200l0 1170c0,128 101,256 226,256l1190 0c125,0 225,-128 225,-256l0 -1170c0,-146 -118,-257 -236,-257l-1169 0c-69,0 -131,42 -167,79 -41,42 -69,100 -69,178z"/>
   <path class="fil0" d="M1102 674l0 0zm-41 -205c53,0 17,0 31,10 -54,0 -15,0 -31,-10zm0 0c-48,0 -19,0 -30,-10 48,0 19,0 30,10zm-30 -10c-49,0 -20,0 -31,-10 49,0 19,-1 31,10zm-31 -10l-21 -11 21 11zm-21 -11c-48,0 -19,1 -31,-10 49,0 20,0 31,10zm-133 21c-24,-2 -28,-3 -43,-8 -25,-9 -24,-10 -39,-23 24,2 28,3 43,8 24,9 24,10 39,23zm102 -31c-48,0 -19,0 -30,-10 48,0 19,0 30,10zm-184 0c-49,0 -20,0 -31,-10 49,0 19,0 31,10zm154 -10l-22 -6 22 6zm-185 0l-20 -10 20 10zm133 -21l22 6 -22 -6zm-153 11c-49,0 -20,0 -31,-11 48,0 19,0 31,11zm153 -11l-22 -5 22 5zm-184 0c-49,0 -20,1 -31,-10 49,0 19,0 31,10zm133 -20c11,-11 39,16 12,5 -1,0 -29,12 -12,-5zm-164 10l-22 -6 22 6zm133 -20l22 5 -22 -5zm-184 0c11,-11 39,16 11,5 0,0 -29,12 -11,-5zm184 0c-48,0 -19,0 -30,-11 48,0 19,0 30,11zm-215 -11c11,-11 39,17 11,6 0,-1 -28,11 -11,-6zm185 0l-22 -5 22 5zm-216 -10l22 6 -22 -6zm164 -10c11,-11 39,16 12,5 -1,0 -29,12 -12,-5zm-164 10l-22 -6 22 6zm133 -21l23 6 -23 -6zm-184 0c11,-10 39,17 11,6 0,0 -28,12 -11,-6zm184 0l-22 -5 22 5zm-215 -10l22 6 -22 -6zm164 -10c11,-11 39,16 12,5 -1,0 -29,12 -12,-5zm-31 -10c11,-11 39,16 12,5 0,0 -29,12 -12,-5zm-20 -11l3 3c0,0 -4,-2 -3,-3zm-113 31c-37,-3 -49,-13 -82,-20 -13,47 -16,9 -21,61l125 50c16,7 8,2 21,10 14,7 11,5 19,12 35,3 30,2 51,21 36,3 30,2 51,20 36,3 30,2 51,21 36,3 31,2 52,20 37,3 121,40 160,56 48,19 110,46 158,57 3,-43 11,-34 20,-72 -41,-19 -183,-64 -215,-92 112,9 218,113 258,46 1,-2 2,-5 3,-6 0,-1 1,-4 2,-5 0,-1 1,-4 1,-5l3 -10c175,41 162,151 121,203 -25,31 -48,33 -101,33l-31 -41c41,11 52,44 98,17 33,-19 45,-65 34,-117 -19,-92 -141,-75 -167,14 -28,93 36,176 114,165 68,-10 129,-106 102,-198 -27,-92 -274,-157 -402,-203 -63,-22 -285,-106 -344,-109 -61,-3 -76,21 -122,31l0 21c28,6 23,5 41,20z"/>
   <path class="fil0" d="M446 644c36,3 30,2 51,20l21 10c35,3 30,2 51,21 36,3 30,2 51,20 36,3 30,2 51,21 29,2 262,91 298,123 31,3 49,10 72,20l0 -123c-56,-13 -117,-42 -173,-63 -57,-21 -118,-47 -177,-69l-348 -134 0 102c27,6 31,10 52,20l51 32z"/>
   <path class="fil0" d="M374 736c49,0 19,0 31,10l20 10c49,0 20,0 31,11l21 10 20 10c49,0 20,0 31,10l20 11 21 10c49,0 19,0 31,10l20 10c37,4 167,65 207,81 37,15 65,28 101,43 33,13 77,38 113,41l0 -113c-35,-3 -47,-9 -72,-31 -43,-4 -167,-63 -223,-85 -12,-5 -25,-9 -37,-14 -22,-11 -23,-12 -38,-24 -35,-3 -30,-2 -51,-21 -36,-3 -30,-2 -51,-20 -36,-3 -30,-2 -51,-21l-21 -10c-36,-3 -30,-2 -51,-20 -41,-4 -61,-21 -103,-31l0 102c17,9 18,10 31,21z"/>
   <path class="fil0" d="M343 1177l349 164c60,30 295,160 349,164l0 -113c-110,-58 -385,-171 -520,-239 -62,-31 -119,-50 -178,-79l0 103z"/>
   <path class="fil0" d="M1061 356c93,126 202,-66 271,99 57,136 10,234 -55,332 -77,0 -104,17 -164,31 24,90 215,78 268,61 52,-16 24,-13 -2,-51l28 -44c170,-357 -187,-506 -346,-428z"/>
   <path class="fil0" d="M723 510c-36,-3 -30,-2 -52,-20 -35,-3 -30,-3 -51,-21 -36,-3 -30,-2 -51,-20 -36,-3 -30,-3 -51,-21 -40,-3 -98,-33 -175,-51l0 92c56,29 661,264 698,267l0 -103c-35,-3 -277,-87 -318,-123z"/>
   <path class="fil0" d="M620 838l-20 -10c-49,0 -20,0 -31,-10l-21 -10 -20 -11c-49,0 -20,1 -31,-10l-20 -10 -21 -10c-49,0 -19,0 -31,-11l-20 -10c-49,0 -20,0 -31,-10l-31 0 0 92c48,11 128,51 174,72l432 195c33,15 60,24 92,41l0 -113c-38,-3 -298,-122 -370,-154l-51 -31z"/>
   <path class="fil0" d="M343 931c60,31 609,297 698,318l0 -103c-97,-22 -242,-108 -343,-149 -93,-39 -272,-129 -355,-148l0 82z"/>
   <path class="fil0" d="M343 1044c113,59 228,108 346,167l352 161 0 -92c-80,-43 -600,-285 -698,-308l0 72z"/>
  </g>
 </g>
</svg>
