<?xml version="1.0" encoding="UTF-8"?>
<!DOCTYPE svg PUBLIC "-//W3C//DTD SVG 1.1//EN" "http://www.w3.org/Graphics/SVG/1.1/DTD/svg11.dtd">
<!-- Creator: CorelDRAW X7 -->
<svg xmlns="http://www.w3.org/2000/svg" xml:space="preserve" width="1.70666in" height="1.70666in" version="1.1" style="shape-rendering:geometricPrecision; text-rendering:geometricPrecision; image-rendering:optimizeQuality; fill-rule:evenodd; clip-rule:evenodd"
viewBox="0 0 1707 1707"
 xmlns:xlink="http://www.w3.org/1999/xlink">
 <defs>
  <style type="text/css">
   <![CDATA[
    .fil0 {fill:#363335}
   ]]>
  </style>
 </defs>
 <g id="Layer_x0020_1">
  <metadata id="CorelCorpID_0Corel-Layer"/>
  <g id="_988174752">
   <path class="fil0" d="M78 1452l0 -1201c0,-141 113,-218 259,-218l1066 0c147,0 259,77 259,218l0 1201c0,155 -128,217 -279,217l-1025 0c-151,0 -280,-59 -280,-217zm-31 -1222l0 1242c0,114 114,228 228,228l1191 0c113,0 227,-114 227,-228l0 -1242c0,-114 -114,-228 -227,-228l-1191 0c-114,0 -228,114 -228,228z"/>
   <path class="fil0" d="M834 1058c-13,35 -9,28 -41,0l41 0zm10 -10l-10 10 10 -10zm0 0c0,-297 98,-203 73,-311 -57,1 -68,22 -117,26 -33,3 -76,-15 -132,-15 5,60 27,54 58,97 5,6 25,38 25,39 28,31 57,30 42,-11 -8,-24 -32,-35 -42,-74 69,6 44,6 114,-10 -48,72 -62,108 -62,228 -90,19 -75,-60 -158,-143 -45,-46 -120,-118 -140,-180 -116,-357 282,-486 449,-335 77,69 87,127 87,233 1,134 -38,148 -96,225 -110,146 -56,167 -101,231zm-403 -476c0,216 169,307 226,395 44,69 17,65 68,87l37 14c-47,2 -55,12 -93,21 2,94 112,65 155,42l0 41c-34,-16 -111,-33 -145,31 130,87 58,-60 270,61 59,34 13,28 68,98 22,27 15,22 44,40 66,40 35,-17 104,18 29,15 29,20 73,21 -9,-35 -4,-22 -33,-39 -18,-9 -34,-14 -50,-23 8,-32 14,-30 21,-62 34,16 80,37 114,21 -31,-43 -48,-24 -81,-43 -47,-28 -2,-41 -63,-62 -84,-29 -140,11 -156,11l-121 -56c-39,-37 -4,-14 -4,-37 0,-54 -22,-16 0,-72 9,-23 21,-38 30,-64 19,-63 8,-88 45,-141 118,-163 133,-110 133,-344 0,-258 -362,-368 -552,-178 -54,54 -90,141 -90,220z"/>
  </g>
 </g>
</svg>
