<?xml version="1.0" encoding="UTF-8"?>
<!DOCTYPE svg PUBLIC "-//W3C//DTD SVG 1.1//EN" "http://www.w3.org/Graphics/SVG/1.1/DTD/svg11.dtd">
<!-- Creator: CorelDRAW X7 -->
<svg xmlns="http://www.w3.org/2000/svg" xml:space="preserve" width="1.70666in" height="1.70666in" version="1.1" style="shape-rendering:geometricPrecision; text-rendering:geometricPrecision; image-rendering:optimizeQuality; fill-rule:evenodd; clip-rule:evenodd"
viewBox="0 0 1707 1707"
 xmlns:xlink="http://www.w3.org/1999/xlink">
 <defs>
  <style type="text/css">
   <![CDATA[
    .fil0 {fill:#363435}
   ]]>
  </style>
 </defs>
 <g id="Layer_x0020_1">
  <metadata id="CorelCorpID_0Corel-Layer"/>
  <g id="_1085263104">
   <path class="fil0" d="M1169 524c4,-39 -6,-31 31,-40 16,34 14,36 -31,40zm-429 501c0,-102 48,-54 72,-143 -45,-30 -90,-88 -146,-34l-104 142c-65,98 -153,253 -118,403 162,38 324,-69 444,-159 101,-76 185,-128 95,-217 -25,-25 -42,-53 -79,-63 16,-197 38,-57 172,-227 60,-76 195,-136 195,-213 0,-43 -31,-82 -71,-82 -75,0 -154,125 -207,182l-97 97c-23,36 -4,19 -19,53 -33,73 -21,-30 -56,138 -7,36 -3,25 -25,46 -14,12 -21,13 -33,29l-23 48z"/>
   <path class="fil0" d="M1425 1659l-1155 0c-106,0 -204,-99 -204,-205l0 -1195c0,-102 90,-205 194,-205l1175 0c109,0 194,110 194,225l0 1165c0,112 -93,215 -204,215zm-1390 -1421l0 1237c0,146 143,225 307,225l1011 0c165,0 307,-79 307,-235l0 -1227c0,-111 -117,-224 -256,-224l-1114 0c-78,0 -128,25 -172,62 -47,40 -83,94 -83,162z"/>
  </g>
 </g>
</svg>
