<?xml version="1.0" encoding="UTF-8"?>
<!DOCTYPE svg PUBLIC "-//W3C//DTD SVG 1.1//EN" "http://www.w3.org/Graphics/SVG/1.1/DTD/svg11.dtd">
<!-- Creator: CorelDRAW X7 -->
<svg xmlns="http://www.w3.org/2000/svg" xml:space="preserve" version="1.1" style="shape-rendering:geometricPrecision; text-rendering:geometricPrecision; image-rendering:optimizeQuality; fill-rule:evenodd; clip-rule:evenodd"
viewBox="0 0 1000 159"
 xmlns:xlink="http://www.w3.org/1999/xlink">
 <defs>
  <style type="text/css">
   <![CDATA[
    .fil1 {fill:#E8C433}
    .fil0 {fill:#E8C433;fill-rule:nonzero}
   ]]>
  </style>
 </defs>
 <g id="Layer_x0020_1">
  <metadata id="CorelCorpID_0Corel-Layer"/>
  <g id="_791061760">
   <path class="fil0" d="M233 141c6,11 20,16 34,16 21,0 36,-10 36,-31 0,-23 -17,-33 -33,-40 -14,-5 -20,-15 -20,-23 0,-10 8,-18 20,-18 10,0 20,3 25,10l6 -6c-6,-7 -18,-12 -30,-12 -18,0 -36,9 -37,30 0,19 13,30 33,39 14,6 20,16 20,24 0,10 -7,19 -20,19 -11,0 -23,-4 -27,-13l-7 5zm98 11l0 -37 0 -28c5,-4 13,-6 21,-6 9,0 18,6 20,17 0,5 0,11 0,17l0 40 17 0 0 -40c0,-8 -1,-15 -2,-21 -3,-14 -19,-21 -35,-21 -7,0 -15,2 -21,4l0 -35 -16 -3 0 76 0 40 16 0 0 -3zm145 -39c0,-7 -1,-14 -2,-19 -2,-14 -19,-21 -35,-21 -16,0 -33,7 -35,20 -1,7 -2,14 -2,22 0,7 1,15 2,21 2,13 19,20 35,20 7,0 15,-1 21,-4l16 3 0 -42zm-16 30c-6,4 -13,6 -21,6 -9,0 -18,-6 -20,-17 0,-5 -1,-11 -1,-17 0,-6 1,-13 1,-18 2,-11 11,-16 20,-16 9,0 18,5 20,16 0,5 1,11 1,17l0 29zm45 -20l0 -36c5,-4 13,-6 20,-6 9,0 19,6 20,17 1,5 1,11 1,17l0 40 16 0 0 -40c0,-8 0,-15 -2,-21 -2,-14 -18,-21 -35,-21 -8,0 -16,2 -23,6l-14 -3 0 79 17 0 0 -32zm76 -84l0 38 -10 0 0 8 10 0 0 70 16 0 0 -3 0 -67 18 0 0 -8 -18 0 0 -35 -16 -3zm116 74c0,-7 -1,-14 -2,-19 -3,-14 -19,-21 -35,-21 -17,0 -33,7 -35,20 -2,7 -2,14 -2,22 0,7 0,15 2,21 2,13 19,20 35,20 7,0 15,-1 21,-4l16 3 0 -42zm-16 30c-6,4 -14,6 -21,6 -9,0 -19,-6 -20,-17 -1,-5 -1,-11 -1,-17 0,-6 0,-13 1,-18 1,-11 11,-16 20,-16 9,0 18,5 20,16 0,5 1,11 1,17l0 29zm44 -20l0 -37c6,-4 13,-5 19,-5l0 0c8,0 15,5 16,15 1,3 1,8 1,12l0 47 16 0 0 -69c7,-3 13,-5 20,-5l0 0c7,0 14,5 15,15 1,4 1,9 1,15l0 44 16 0 0 -44c0,-7 0,-14 -1,-19 -3,-13 -17,-19 -31,-19 -10,0 -20,3 -27,9 -6,-6 -16,-9 -26,-9 -7,0 -15,2 -21,6l-14 -3 0 79 16 0 0 -32zm170 -27l-52 0 0 13 52 0 0 -13zm88 -39c-3,-14 -19,-21 -36,-21 -16,0 -32,7 -35,21 -1,5 -1,10 -1,14 0,5 0,10 1,15 3,13 19,22 36,22 7,0 14,-2 20,-4l0 10c0,6 0,12 -1,17 -1,11 -11,17 -20,17 -10,0 -20,-3 -25,-10l-6 6c7,8 19,12 31,12 17,0 33,-7 35,-20 2,-7 2,-14 2,-22l0 -36c0,-7 0,-15 -1,-21zm-15 37c-5,4 -13,6 -20,6l-1 0 0 0c-9,0 -18,-6 -19,-17 -1,-4 -1,-7 -1,-11 0,-19 7,-28 20,-28 9,0 19,6 20,17 1,5 1,11 1,17l0 16z"/>
   <polygon class="fil1" points="169,26 142,1 1,1 1,91 24,114 171,114 171,87 27,87 27,26 "/>
   <polygon class="fil1" points="43,46 43,71 190,71 190,157 215,157 215,73 189,46 "/>
   <polygon class="fil1" points="43,131 68,157 172,157 172,132 "/>
  </g>
 </g>
</svg>
