<?xml version="1.0" encoding="UTF-8"?>
<!DOCTYPE svg PUBLIC "-//W3C//DTD SVG 1.1//EN" "http://www.w3.org/Graphics/SVG/1.1/DTD/svg11.dtd">
<!-- Creator: CorelDRAW X7 -->
<svg xmlns="http://www.w3.org/2000/svg" xml:space="preserve" version="1.1" style="shape-rendering:geometricPrecision; text-rendering:geometricPrecision; image-rendering:optimizeQuality; fill-rule:evenodd; clip-rule:evenodd"
viewBox="0 0 1000 442"
 xmlns:xlink="http://www.w3.org/1999/xlink">
 <defs>
  <style type="text/css">
   <![CDATA[
    .fil0 {fill:#373435}
    .fil2 {fill:#373435;fill-rule:nonzero}
    .fil1 {fill:#E0B667;fill-rule:nonzero}
   ]]>
  </style>
 </defs>
 <g id="Layer_x0020_1">
  <metadata id="CorelCorpID_0Corel-Layer"/>
  <g id="_788473664">
   <g>
    <polygon class="fil0" points="4,32 171,128 170,381 2,297 "/>
    <path class="fil1" d="M93 343c2,-2 5,-5 7,-7 8,-10 14,-22 16,-34 1,-12 0,-24 -5,-34 -4,-10 -11,-19 -19,-28 -8,-9 -17,-17 -26,-25 -10,-8 -19,-16 -27,-24 -8,-8 -15,-17 -20,-25 -5,-9 -6,-18 -5,-29 3,-16 9,-29 18,-39 10,-10 21,-19 35,-25 4,-2 1,-1 6,-2l22 13c-8,4 -14,8 -20,14 -6,6 -9,13 -11,22 -1,10 0,20 5,29 5,8 11,16 19,24 9,7 17,15 27,22 9,8 18,16 26,25 8,9 14,19 18,30 5,11 6,24 4,39 -3,17 -10,32 -22,46 -8,10 -11,14 -21,21l-27 -13z"/>
   </g>
   <path class="fil2" d="M324 179l-55 0 0 18 53 0c8,0 13,1 17,4 2,3 4,8 4,16l0 12c0,7 -2,12 -4,15 -4,3 -9,5 -17,5l-52 0c-9,0 -14,-2 -17,-5 -3,-3 -4,-8 -4,-15l0 -3 17 -3 0 10 59 0 0 -20 -52 0c-8,0 -14,-1 -17,-4 -3,-3 -4,-8 -4,-15l0 -10c0,-7 1,-13 4,-15 3,-3 9,-5 17,-5l48 0c8,0 13,2 16,4 3,3 5,8 5,15l0 1 -18 5 0 -10zm50 70l0 -70 17 0 0 27 52 0 0 -27 17 0 0 70 -17 0 0 -30 -52 0 0 30 -17 0zm95 0l41 -70 16 0 42 70 -19 0 -9 -16 -45 0 -9 16 -17 0zm33 -28l32 0 -17 -29 -15 29zm94 28l0 -70 12 0 59 46 0 -46 15 0 0 70 -12 0 -58 -47 0 47 -16 0zm148 -57l0 57 -17 0 0 -57 -33 0 0 -13 84 0 0 13 -34 0zm31 57l41 -70 17 0 41 70 -19 0 -8 -16 -46 0 -9 16 -17 0zm33 -28l32 0 -16 -29 -16 29zm94 28l0 -70 14 0 34 41 33 -41 14 0 0 70 -16 0 0 -48 -31 39 -3 0 -31 -38 0 47 -14 0z"/>
  </g>
 </g>
</svg>
