<?xml version="1.0" encoding="UTF-8"?>
<!DOCTYPE svg PUBLIC "-//W3C//DTD SVG 1.1//EN" "http://www.w3.org/Graphics/SVG/1.1/DTD/svg11.dtd">
<!-- Creator: CorelDRAW X7 -->
<svg xmlns="http://www.w3.org/2000/svg" xml:space="preserve" version="1.1" style="shape-rendering:geometricPrecision; text-rendering:geometricPrecision; image-rendering:optimizeQuality; fill-rule:evenodd; clip-rule:evenodd"
viewBox="0 0 1000 806"
 xmlns:xlink="http://www.w3.org/1999/xlink">
 <defs>
  <style type="text/css">
   <![CDATA[
    .fil2 {fill:#A5915C}
    .fil1 {fill:#A5915C;fill-rule:nonzero}
    .fil0 {fill:white;fill-rule:nonzero}
   ]]>
  </style>
 </defs>
 <g id="Layer_x0020_1">
  <metadata id="CorelCorpID_0Corel-Layer"/>
  <g id="_795441904">
   <path class="fil0" d="M173 487l-100 0c-11,0 -19,2 -24,6 -5,4 -7,10 -7,19 0,7 2,13 6,16 4,4 11,5 19,5l54 0c22,0 38,5 48,13 9,8 14,22 14,42 0,20 -6,35 -16,44 -11,9 -28,14 -52,14l-108 0 0 -35 102 0c11,0 19,-1 24,-5 5,-3 7,-9 7,-16 0,-8 -2,-14 -6,-18 -5,-3 -12,-5 -23,-5l-48 0c-22,0 -38,-4 -48,-13 -11,-9 -16,-23 -16,-42 0,-21 6,-36 16,-45 11,-10 28,-15 52,-15l106 0 0 35zm81 -35l0 79 75 0 0 -79 40 0 0 342 -40 0 0 -229 -75 0 0 81 -41 0 0 -194 41 0zm198 194l-42 0 0 -194 42 0 0 194zm117 0c-18,0 -31,-2 -40,-5 -9,-3 -17,-8 -24,-15 -6,-7 -11,-15 -13,-23 -3,-8 -4,-20 -4,-35l0 -116 40 0 0 114c0,11 1,19 2,24 1,5 3,8 5,11 4,5 9,8 14,10 6,2 14,3 24,3l47 0 0 32 -51 0zm73 -194l88 0c15,0 27,1 36,3 9,1 16,4 21,7 9,6 16,13 20,22 5,9 7,20 7,32 0,11 -2,21 -5,29 -4,9 -10,15 -17,21 -7,4 -14,8 -22,9 -8,2 -21,3 -38,3l-49 0 0 68 -41 0 0 -194zm88 35l-47 0 0 57 49 0c13,0 22,-2 28,-7 6,-5 9,-12 9,-21 0,-11 -3,-18 -9,-23 -6,-4 -16,-6 -30,-6z"/>
   <path class="fil1" d="M465 738c0,-6 -1,-9 -3,-11 -3,-2 -6,-3 -11,-3l-26 0c-3,0 -5,0 -7,1 -2,0 -3,1 -4,2 -1,2 -1,3 -2,5 0,2 0,4 0,6l0 8 53 0 0 -8zm-53 32c0,5 1,8 3,9 2,2 6,2 11,2l37 0c3,0 5,0 7,-1 2,-1 4,-2 7,-4l0 18 -57 0c-5,0 -10,0 -13,-1 -3,0 -6,-2 -7,-3 -2,-2 -3,-4 -4,-7 0,-3 0,-6 0,-10l0 -40c0,-4 0,-8 1,-10 1,-3 2,-5 4,-7 2,-2 4,-3 8,-4 3,0 6,-1 11,-1l35 0c6,0 11,0 14,1 3,1 6,2 7,4 2,2 3,4 3,7 1,4 1,8 1,13l0 22 -68 0 0 12zm191 24c2,-3 3,-5 3,-7 1,-2 1,-5 1,-8l0 -42c0,-2 0,-4 -1,-6 -1,-2 -2,-3 -3,-4 -2,-1 -4,-2 -6,-3 -3,0 -6,0 -10,0 -7,0 -12,1 -15,2 -3,2 -5,5 -5,10l0 43c0,5 2,10 4,15l-22 0c2,-5 3,-10 3,-15l0 -43c0,-5 -2,-8 -5,-10 -3,-1 -8,-2 -15,-2 -7,0 -12,1 -15,3 -3,2 -4,6 -4,12l0 40c0,2 0,5 1,7 0,3 1,5 2,8l-22 0c1,-3 2,-6 2,-8 1,-2 1,-4 1,-7l0 -55c0,-5 -1,-9 -3,-13l18 0 0 10c1,-4 4,-6 7,-7 4,-2 9,-3 14,-3l9 0c4,0 8,0 11,1 2,0 4,1 6,2 1,1 2,2 3,4 0,1 1,2 1,4 1,-2 2,-3 3,-5 2,-1 3,-2 5,-3 2,-1 5,-2 7,-2 3,-1 7,-1 10,-1l10 0c5,0 9,0 12,1 4,0 6,1 8,2 2,2 3,4 4,7 0,3 1,7 1,12l0 46c0,3 0,6 0,8 1,2 2,5 3,7l-23 0zm106 -53c0,-3 0,-6 -1,-8 0,-3 -1,-4 -3,-6 -1,-1 -3,-2 -5,-3 -3,0 -5,0 -9,0l-34 0 0 45c0,4 0,7 2,9 2,2 4,4 8,4l24 0c4,0 6,-1 9,-1 2,-1 4,-2 5,-3 2,-1 3,-3 3,-5 1,-3 1,-6 1,-9l0 -23zm16 32c0,4 -1,8 -1,10 0,3 -1,5 -3,7 -2,1 -4,3 -7,3 -3,1 -8,1 -14,1l-36 0c-2,0 -3,-1 -4,-2 -2,-1 -3,-3 -3,-5 -1,5 -3,7 -6,7l-13 0c2,-5 3,-11 3,-18l0 -85c0,-2 0,-4 -1,-7 0,-3 -1,-6 -2,-9l22 0c-2,6 -3,11 -3,16l0 20 43 0c6,0 11,0 14,1 3,1 5,2 7,3 2,2 3,4 3,7 0,3 1,6 1,11l0 40zm39 -15c-4,0 -7,1 -9,2 -2,2 -2,5 -2,9 0,5 0,8 2,10 2,1 5,2 9,2l32 0c6,0 8,-4 8,-12l0 -11 -40 0zm48 36c-4,0 -6,-2 -8,-6 -1,2 -2,4 -3,5 -1,1 -3,1 -5,1l-35 0c-6,0 -10,0 -13,-1 -4,0 -6,-2 -8,-3 -1,-2 -2,-5 -3,-8 0,-4 -1,-8 -1,-14 0,-5 1,-8 1,-11 1,-3 2,-5 3,-7 2,-1 4,-2 8,-3 3,-1 7,-1 13,-1l43 0 0 -7c0,-6 -1,-10 -3,-12 -2,-2 -7,-3 -12,-3l-35 0c-4,0 -8,2 -12,6l0 -19 54 0c5,0 9,0 13,1 3,0 5,2 7,3 2,2 3,4 3,7 1,2 1,6 1,11l0 45c0,3 1,6 1,9 1,3 2,5 3,7l-12 0zm85 -63c-2,-3 -3,-4 -5,-5 -1,0 -4,-1 -6,-1l-14 0c-4,0 -6,1 -9,1 -2,1 -4,2 -5,3 -2,1 -3,3 -3,5 -1,3 -1,5 -1,9l0 36c0,5 1,10 4,15l-23 0c2,-5 3,-10 3,-15l0 -53c0,-5 -1,-10 -3,-15l17 0 0 11c2,-4 5,-6 8,-8 3,-2 7,-3 11,-3l26 0 0 20zm80 63c2,-5 3,-11 3,-17l0 -4c0,-3 0,-6 -1,-7 0,-2 -1,-4 -2,-5 -2,0 -3,-1 -5,-1 -2,-1 -4,-1 -7,-1l-39 0 0 15c0,7 1,13 4,20l-23 0c2,-8 3,-14 3,-20l0 -84c0,-3 0,-5 0,-8 -1,-2 -2,-5 -3,-7l23 0c-1,2 -2,5 -3,7 0,3 -1,5 -1,8l0 64 34 -33c2,-2 3,-4 4,-5 1,-1 2,-3 2,-5l27 0c-2,1 -4,2 -7,4 -2,2 -4,4 -6,6l-27 26 22 0c14,0 21,7 21,21l0 9c0,6 1,12 3,17l-22 0z"/>
   <path class="fil2" d="M820 240l-99 99 -24 -121 80 -22 43 44zm-124 123l-113 112 -64 -64 177 -48zm-199 26l-17 -17 202 -57 5 22 -190 52zm-35 -36l-20 -20 231 -64 5 23 -216 61zm-40 -40l-18 -18 261 -69 4 20 -247 67zm-38 -38l-37 -37 109 -108 -2 3 33 114 -95 26 -8 2 1 0 -1 0zm94 -166l107 -106 60 60 -167 46zm187 -26l17 17 -189 55 -6 -22 178 -50zm34 35l19 19 -210 62 -8 -24 199 -57zm39 39l19 19 -239 63 -5 -19 225 -63z"/>
  </g>
 </g>
</svg>
