<?xml version="1.0" encoding="UTF-8"?>
<!DOCTYPE svg PUBLIC "-//W3C//DTD SVG 1.1//EN" "http://www.w3.org/Graphics/SVG/1.1/DTD/svg11.dtd">
<!-- Creator: CorelDRAW X7 -->
<svg xmlns="http://www.w3.org/2000/svg" xml:space="preserve" width="5.73333in" height="0.866661in" version="1.1" style="shape-rendering:geometricPrecision; text-rendering:geometricPrecision; image-rendering:optimizeQuality; fill-rule:evenodd; clip-rule:evenodd"
viewBox="0 0 5733 867"
 xmlns:xlink="http://www.w3.org/1999/xlink">
 <defs>
  <style type="text/css">
   <![CDATA[
    .fil0 {fill:#D2AE6D}
    .fil1 {fill:#D2AE6D;fill-rule:nonzero}
   ]]>
  </style>
 </defs>
 <g id="Layer_x0020_1">
  <metadata id="CorelCorpID_0Corel-Layer"/>
  <g id="_652388416">
   <polygon class="fil0" points="931,148 787,17 27,17 27,490 150,611 946,611 946,467 170,467 170,150 "/>
   <polygon class="fil0" points="255,255 255,386 1045,386 1045,841 1184,841 1184,397 1039,255 "/>
   <polygon class="fil0" points="254,702 391,837 949,837 949,705 "/>
   <path class="fil1" d="M1475 738c8,15 18,27 31,38 13,11 28,19 45,26 17,8 35,13 54,16 20,4 40,6 60,6 29,0 56,-4 81,-10 25,-7 46,-18 64,-32 18,-14 33,-31 43,-53 10,-21 15,-46 15,-75 0,-25 -4,-47 -11,-66 -7,-19 -16,-36 -28,-52 -13,-14 -27,-28 -42,-39 -16,-12 -33,-22 -51,-31 -18,-9 -37,-17 -55,-24 -26,-10 -47,-22 -63,-36 -17,-14 -29,-29 -36,-45 -8,-15 -12,-31 -12,-46 0,-17 5,-33 14,-47 9,-15 22,-26 39,-35 17,-9 38,-13 61,-13 19,0 37,2 55,6 18,3 34,9 49,17 15,8 27,19 37,31l35 -32c-12,-14 -28,-26 -46,-36 -18,-10 -39,-17 -61,-22 -22,-5 -44,-8 -68,-8 -19,0 -39,2 -58,6 -19,4 -38,10 -55,17 -17,8 -33,19 -46,31 -14,13 -25,28 -33,46 -7,18 -12,38 -12,61 0,34 7,63 22,89 15,27 36,50 64,70 28,20 61,38 100,53 27,11 48,24 65,38 16,14 29,29 36,45 8,16 12,32 12,48 0,18 -5,35 -14,50 -9,15 -22,28 -40,37 -17,10 -37,14 -61,15 -16,0 -32,-2 -48,-5 -15,-3 -30,-7 -43,-13 -14,-6 -26,-13 -36,-22 -11,-9 -19,-20 -24,-32l-39 28zm553 61l0 -201 0 -152c10,-7 21,-13 34,-18 13,-5 26,-8 40,-11 14,-2 29,-3 43,-3 13,0 26,2 39,5 12,4 23,10 33,17 11,8 19,17 26,29 7,11 12,24 14,38 2,14 3,29 4,45 1,16 1,32 1,49l0 217 92 0 0 -217c0,-21 -1,-41 -3,-61 -1,-19 -4,-38 -7,-55 -4,-18 -12,-34 -24,-48 -13,-13 -28,-25 -46,-34 -19,-9 -39,-16 -61,-21 -22,-4 -45,-7 -68,-7 -21,0 -41,2 -61,6 -20,4 -39,9 -56,17l0 -191 -92 -15 0 409 0 217 92 0 0 -15zm819 -212c0,-19 -1,-37 -2,-56 -2,-17 -4,-34 -8,-50 -3,-19 -12,-35 -24,-49 -12,-14 -28,-26 -46,-36 -19,-9 -39,-16 -61,-21 -22,-4 -45,-7 -68,-7 -24,0 -46,3 -68,7 -22,5 -43,12 -61,21 -18,9 -34,21 -46,35 -12,13 -20,30 -24,48 -3,18 -6,37 -7,56 -2,20 -3,40 -3,61 0,20 1,40 3,60 1,20 4,38 7,55 4,18 12,34 25,48 12,14 27,25 46,34 18,9 38,16 60,21 22,4 45,7 68,7 21,0 42,-2 62,-6 20,-3 38,-9 55,-16l92 15 0 -227zm-92 159c-10,8 -21,14 -34,18 -13,5 -26,9 -40,11 -14,2 -28,4 -43,4 -13,0 -25,-2 -38,-6 -12,-4 -24,-9 -34,-17 -11,-7 -19,-16 -26,-28 -7,-11 -12,-23 -14,-38 -2,-14 -3,-29 -4,-45 -1,-16 -1,-33 -1,-49 0,-17 0,-33 1,-49 1,-17 2,-32 4,-46 2,-15 7,-28 14,-39 7,-11 15,-20 26,-28 10,-7 21,-13 34,-17 12,-3 25,-5 38,-5 13,0 26,2 38,5 12,4 24,10 34,17 10,8 19,17 26,29 7,11 11,24 14,39 2,14 3,28 4,44 1,16 1,31 1,48l0 152zm254 -104l0 -196c10,-7 22,-13 35,-18 12,-5 25,-8 39,-11 15,-2 29,-3 44,-3 13,0 25,2 38,5 12,4 24,10 34,17 10,8 19,17 26,29 7,11 11,24 13,38 2,14 3,29 4,45 1,16 2,32 2,49l0 217 91 0 0 -217c0,-21 -1,-41 -2,-61 -2,-19 -4,-38 -8,-55 -4,-18 -12,-34 -24,-48 -12,-13 -28,-25 -46,-34 -18,-9 -39,-16 -61,-21 -22,-4 -44,-7 -67,-7 -24,0 -48,3 -70,7 -23,5 -43,13 -62,23l-78 -13 0 426 92 0 0 -172zm434 -454l0 201 -58 0 0 45 58 0 0 380 91 0 0 -15 0 -365 98 0 0 -45 -98 0 0 -186 -91 -15zm653 399c0,-19 0,-37 -2,-56 -2,-17 -4,-34 -7,-50 -4,-19 -12,-35 -25,-49 -12,-14 -27,-26 -46,-36 -18,-9 -39,-16 -61,-21 -22,-4 -45,-7 -68,-7 -23,0 -46,3 -68,7 -22,5 -42,12 -61,21 -18,9 -33,21 -45,35 -13,13 -20,30 -24,48 -4,18 -6,37 -8,56 -2,20 -2,40 -2,61 0,20 0,40 2,60 2,20 4,38 8,55 4,18 12,34 24,48 12,14 28,25 46,34 19,9 39,16 61,21 22,4 45,7 68,7 21,0 41,-2 61,-6 20,-3 39,-9 56,-16l91 15 0 -227zm-91 159c-11,8 -22,14 -35,18 -12,5 -25,9 -39,11 -15,2 -29,4 -43,4 -13,0 -26,-2 -38,-6 -13,-4 -24,-9 -35,-17 -10,-7 -19,-16 -26,-28 -7,-11 -11,-23 -13,-38 -2,-14 -4,-29 -4,-45 -1,-16 -2,-33 -2,-49 0,-17 1,-33 2,-49 0,-17 2,-32 4,-46 2,-15 6,-28 13,-39 7,-11 16,-20 26,-28 11,-7 22,-13 34,-17 13,-3 25,-5 38,-5 13,0 26,2 38,5 13,4 24,10 35,17 10,8 18,17 25,29 7,11 12,24 14,39 2,14 4,28 4,44 1,16 2,31 2,48l0 152zm254 -104l0 -204c10,-7 21,-12 34,-15 12,-4 24,-6 37,-8 13,-2 25,-2 36,-2l0 1c14,0 28,3 41,8 13,6 24,15 33,27 9,11 14,26 17,43 1,10 2,21 3,33 1,12 1,24 2,36l0 253 91 0 0 -376c17,-8 35,-14 53,-18 18,-5 36,-7 55,-7l0 1c10,0 20,1 30,5 10,3 20,8 28,14 8,7 15,15 21,25 6,10 9,21 11,34 1,12 3,25 3,39 1,14 2,28 2,42l0 241 91 0 0 -241c0,-18 -1,-36 -2,-53 -2,-18 -4,-34 -7,-50 -4,-16 -11,-31 -22,-43 -11,-12 -25,-23 -41,-31 -16,-8 -34,-14 -54,-18 -19,-5 -40,-7 -60,-7 -19,0 -38,2 -56,6 -18,3 -35,9 -51,16 -15,7 -29,15 -41,26 -11,-11 -25,-19 -40,-26 -16,-7 -33,-13 -51,-16 -18,-4 -37,-6 -56,-6 -23,0 -44,3 -65,8 -21,5 -40,12 -57,22l-77 -13 0 426 92 0 0 -172zm1022 -146l-296 0 0 67 296 0 0 -67zm190 -308l-164 27 0 43 72 -12 0 568 92 0 0 -583 0 -43zm241 0l-165 27 0 43 73 -12 0 568 92 0 0 -583 0 -43z"/>
  </g>
 </g>
</svg>
